<svg xmlns="http://www.w3.org/2000/svg" width="122" height="40" fill="none" class="mt-[1rem] sm:mt-[0.1rem] md:mt-[-0.7rem] xl:mt-[0.31rem]"><circle cx="30" cy="20" r="7.885" stroke="#000" stroke-width="4.231"></circle><path fill="#000" fill-rule="evenodd" d="M15.77 20A5.77 5.77 0 1 1 10 14.23V10C4.477 10 0 14.477 0 20s4.477 10 10 10 10-4.477 10-10z" clip-rule="evenodd"></path><path fill="#000" d="M10 16.538h5.769V20H10zM107.93 34.776v-19.01h2.025l.624 1.402c.28-.28.592-.561.966-.78.654-.373 1.683-.778 3.085-.778 3.74 0 6.7 2.96 6.7 7.168 0 4.207-2.96 7.167-6.7 7.167-1.34 0-2.275-.374-2.929-.779-.374-.218-.686-.498-.966-.779v6.389zm6.544-7.48c2.151 0 4.052-1.87 4.052-4.518 0-2.65-1.901-4.52-4.052-4.52s-4.051 1.87-4.051 4.52 1.901 4.518 4.051 4.518M91.89 15.766v8.102c0 3.584 2.494 6.077 5.61 6.077q.242 0 .468-.014v-2.635c-1.746 0-3.273-1.527-3.273-3.428v-8.102z"></path><path fill="#000" d="M104.023 15.766v8.102c0 3.584-2.493 6.077-5.61 6.077q-.24 0-.467-.014v-2.635c1.746 0 3.273-1.527 3.273-3.428v-8.102zM82.224 27.296c2.025 0 3.895-1.87 3.895-4.518 0-2.65-1.87-4.52-3.895-4.52s-3.896 1.87-3.896 4.52 1.87 4.518 3.896 4.518m0 2.65c-3.74 0-6.7-2.961-6.7-7.169 0-4.207 2.96-7.167 6.7-7.167s6.7 2.96 6.7 7.168c0 4.207-2.96 7.167-6.7 7.167M66.656 29.982V15.765h2.026l.623 1.403c.25-.28.561-.561.904-.78a4.9 4.9 0 0 1 2.68-.778c.343 0 .53.062.686.093l.25.062v2.805l-.281-.062c-.218-.031-.437-.094-.655-.094-1.9 0-3.428 1.59-3.428 3.428v8.14zM59.959 27.92a7.5 7.5 0 0 1-1.465 1.028 9 9 0 0 1-4.145.997c-4.986 0-9.349-4.363-9.349-9.972C45 14.363 49.363 10 54.35 10c4.362 0 7.51 3.148 8.414 6.545h-3.117c-.685-2.026-2.43-3.896-5.298-3.896-3.24 0-6.388 3.085-6.388 7.324s3.147 7.323 6.388 7.323c3.086 0 5.267-2.212 5.766-4.83h-5.921V19.66h8.726v1.09c0 4.615-2.763 6.971-2.961 7.169"></path></svg>